<svg width="42" height="42" viewBox="0 0 42 42" fill="none" xmlns="http://www.w3.org/2000/svg">
<path fill-rule="evenodd" clip-rule="evenodd" d="M36.42 10.9693C38.6111 10.9693 40.5861 9.6513 41.4229 7.63075C42.2596 5.61019 41.7931 3.2856 40.2412 1.74232C38.6892 0.19904 36.3579 -0.258519 34.3357 0.583278C32.3136 1.42507 30.9994 3.40018 31.0069 5.58643C31.017 8.56226 33.4376 10.9693 36.42 10.9693ZM36.4201 3.25325C37.7115 3.25325 38.7584 4.29785 38.7584 5.58643C38.7584 6.87501 37.7115 7.91961 36.4201 7.91961C35.1286 7.91961 34.0817 6.87501 34.0817 5.58643C34.0817 4.29785 35.1286 3.25325 36.4201 3.25325Z" fill="#D32424"/>
<path d="M3.2415 29.3224C3.2415 35.4217 6.61092 38.7653 12.7053 38.7653C13.5553 38.7752 14.242 39.4604 14.2519 40.3085C14.2418 41.1536 13.5523 41.8334 12.7053 41.8334C4.97224 41.8334 0.166687 37.0384 0.166687 29.3224V14.3129C0.166687 6.5785 4.97224 1.78354 12.7053 1.78354H26.2566C27.1036 1.7936 27.7849 2.48158 27.7848 3.32674C27.7848 3.73436 27.6213 4.12502 27.3307 4.41151C27.0401 4.69801 26.6467 4.85649 26.2382 4.85158H12.7053C6.61092 4.85158 3.2415 8.21356 3.2415 14.3129V29.3224Z" fill="#D32424"/>
<path d="M24.8941 25.3174C24.6362 25.6351 24.2683 25.8448 23.863 25.9053C23.4597 25.9462 23.0564 25.8274 22.7399 25.5746L17.0874 21.1471L12.0057 27.7424C11.7633 28.0714 11.3989 28.2896 10.994 28.3483C10.5891 28.407 10.1776 28.3013 9.85144 28.0547C9.18589 27.5341 9.06286 26.5766 9.57526 25.9053L15.596 18.079C15.8472 17.7546 16.2174 17.5431 16.625 17.4914C17.0326 17.4397 17.4441 17.552 17.7686 17.8035L23.4211 22.231L28.3924 15.8928C28.9381 15.3751 29.7804 15.3312 30.3772 15.7893C30.974 16.2473 31.1475 17.0709 30.786 17.73L24.8941 25.3174Z" fill="#D32424"/>
<path d="M38.8321 14.3129C37.9881 14.3129 37.3039 14.9956 37.3039 15.8377V29.3224C37.2486 35.4217 33.8792 38.7653 27.7848 38.7653H21.6352C20.7852 38.7752 20.0985 39.4604 20.0886 40.3085C20.0986 41.1536 20.7881 41.8334 21.6352 41.8334H27.7848C35.5179 41.8334 40.3419 37.0384 40.3419 29.3224V15.8377C40.3419 15.0027 39.6689 14.3229 38.8321 14.3129Z" fill="#D32424"/>
</svg>
