<svg width="38" height="42" viewBox="0 0 38 42" fill="none" xmlns="http://www.w3.org/2000/svg">
<path d="M10.9539 0.166687H27.0279C33.7224 0.166687 37.7319 4.23218 37.75 11.0203V30.9798C37.75 37.7679 33.7587 41.8334 27.0461 41.8334H21.0954C20.3323 41.748 19.7547 41.0942 19.7547 40.3157C19.7547 39.5372 20.3323 38.8834 21.0954 38.798H27.0279C32.144 38.798 34.7202 36.1674 34.7202 30.9798V11.0203C34.7202 5.83262 32.144 3.20201 27.0279 3.20201H10.9539C5.83781 3.20201 3.24347 5.83262 3.24347 11.0203V30.9798C3.24347 36.1674 5.83781 38.798 10.9539 38.798C11.7171 38.8834 12.2947 39.5372 12.2947 40.3157C12.2947 41.0942 11.7171 41.748 10.9539 41.8334C4.25943 41.8334 0.25 37.7679 0.25 30.9798V11.0203C0.25 4.21378 4.25943 0.166687 10.9539 0.166687Z" fill="#D32424"/>
<path d="M11.4801 13.706H17.1949C17.958 13.6207 18.5356 12.9669 18.5356 12.1884C18.5356 11.4099 17.958 10.756 17.1949 10.6707H11.4801C10.7169 10.756 10.1393 11.4099 10.1393 12.1884C10.1393 12.9669 10.7169 13.6207 11.4801 13.706Z" fill="#D32424"/>
<path d="M26.4837 22.5177H11.4619C10.6988 22.4324 10.1211 21.7785 10.1211 21C10.1211 20.2215 10.6988 19.5677 11.4619 19.4824H26.4837C27.0578 19.4182 27.6175 19.6926 27.9243 20.1887C28.2312 20.6848 28.2312 21.3152 27.9243 21.8113C27.6175 22.3074 27.0578 22.5819 26.4837 22.5177Z" fill="#D32424"/>
<path d="M26.4837 31.3293H11.4619C10.6403 31.3293 9.97424 30.654 9.97424 29.8209C9.97424 28.9878 10.6403 28.3124 11.4619 28.3124H26.4837C27.3053 28.3124 27.9713 28.9878 27.9713 29.8209C27.9713 30.654 27.3053 31.3293 26.4837 31.3293Z" fill="#D32424"/>
</svg>
