<svg width="42" height="42" viewBox="0 0 42 42" fill="none" xmlns="http://www.w3.org/2000/svg">
<path fill-rule="evenodd" clip-rule="evenodd" d="M33.8813 5.54377H29.7917C29.4042 2.5146 26.8104 0.166687 23.6792 0.166687H18.3C15.1688 0.166687 12.575 2.51252 12.1875 5.54169L8.11877 5.54377C3.73335 5.54377 0.166687 9.1021 0.166687 13.475V20.6979C0.166687 21.2229 0.429187 21.7125 0.86877 22.0021C5.15835 24.8334 10.2354 26.7188 15.55 27.4584C16.3396 27.575 17.0646 27.0813 17.2729 26.3229C17.7375 24.6334 19.2271 23.4979 20.9792 23.4979C22.7125 23.4979 24.2167 24.6584 24.6375 26.3146C24.8146 27.0146 25.4459 27.4938 26.15 27.4938C26.2229 27.4938 26.2938 27.4896 26.3667 27.4792C31.7167 26.7396 36.8167 24.8438 41.1125 22.0021C41.55 21.7104 41.8125 21.2229 41.8125 20.6979V13.475C41.8125 9.1021 38.2542 5.54377 33.8813 5.54377ZM38.6875 19.8438C35.2646 21.9709 31.3188 23.4604 27.1646 24.1917C26.0229 21.8854 23.6479 20.3729 20.9792 20.3729C18.3313 20.3729 15.9459 21.8813 14.7729 24.1729C10.6438 23.4459 6.71044 21.9646 3.29169 19.8438V13.475C3.29169 10.825 5.45627 8.66877 8.12085 8.66877L13.7 8.6646C14.1167 8.6646 14.5125 8.50002 14.8063 8.20627C15.0979 7.91044 15.2625 7.5146 15.2625 7.10002L15.2604 6.32919C15.2604 4.65419 16.625 3.29169 18.3 3.29169H23.6792C25.0813 3.29169 26.2667 4.24794 26.6146 5.54377H20.9896C20.1271 5.54377 19.4271 6.24377 19.4271 7.10627C19.4271 7.96877 20.1271 8.66877 20.9896 8.66877H33.8813C36.5313 8.66877 38.6875 10.825 38.6875 13.475V19.8438Z" fill="#D32424"/>
<path d="M22.5517 28.0488V30.7446C22.5517 31.6071 21.8517 32.3071 20.9892 32.3071C20.1267 32.3071 19.4267 31.6071 19.4267 30.7446V28.0488C19.4267 27.1863 20.1267 26.4863 20.9892 26.4863C21.8517 26.4863 22.5517 27.1863 22.5517 28.0488Z" fill="#D32424"/>
<path d="M40.1979 26.6777C39.3792 26.6777 38.7271 27.3152 38.6646 28.1152C38.6646 28.1152 38.3438 31.759 38.2771 32.909C38.2 34.1819 37.6833 35.5673 36.9604 36.4361C35.9417 37.6652 34.8125 38.1465 32.9334 38.1506C31.7 38.1527 25.0479 38.1548 20.0229 38.1548C19.1584 38.1548 18.4584 38.8548 18.4584 39.7173C18.4584 40.5798 19.1584 41.2798 20.0209 41.2798C24.8709 41.2798 31.775 41.2777 32.9396 41.2756C35.7188 41.2694 37.7625 40.3652 39.3667 38.4319C40.5188 37.0444 41.2771 35.0506 41.3959 33.0965C41.4431 32.2928 41.6046 30.2077 41.6945 29.0465C41.7314 28.5702 41.7563 28.2494 41.7563 28.2361C41.7563 27.3756 41.0584 26.6777 40.1979 26.6777Z" fill="#D32424"/>
<path d="M9.04628 38.1502C9.45461 38.1523 10.3004 38.1523 11.4109 38.1523C12.2734 38.1523 12.9796 38.8523 12.9796 39.7148C12.9796 40.5773 12.2713 41.2773 11.4067 41.2773C10.2817 41.2773 9.46086 41.2773 9.04211 41.2752C6.26086 41.269 4.21711 40.3648 2.61294 38.4294C1.46294 37.044 0.702527 35.0502 0.585861 33.0961C0.537813 32.304 0.379872 30.2675 0.289107 29.0972C0.249998 28.5929 0.223361 28.2494 0.223361 28.2356C0.223361 27.3752 0.921277 26.6773 1.78169 26.6773C2.60044 26.6773 3.25044 27.3148 3.31503 28.1169C3.31503 28.1169 3.63586 31.7606 3.70461 32.9086C3.78169 34.1815 4.29628 35.5669 5.01919 36.4336C6.04003 37.6669 7.16919 38.1461 9.04628 38.1502Z" fill="#D32424"/>
</svg>
