<svg width="288" height="30" viewBox="0 0 288 30" fill="none" xmlns="http://www.w3.org/2000/svg">
<path d="M273.694 0H272.291C264.436 0 257.984 6.75 257.984 15C257.984 23.25 264.343 30 272.291 30H273.694C281.548 30 288 23.25 288 15C288 6.75 281.642 0 273.694 0ZM270.982 21.5625L269.018 17.5312L268.27 18.375V21.5625H265.465V6.5625H268.27V14.7188L268.644 14.1562L270.514 10.9688H273.787L270.701 15.2812L274.068 21.4688H270.982V21.5625ZM282.39 21.5625H274.909V19.875L279.023 13.3125H275.003V10.9688H282.296V12.6562L278.182 19.2188H282.39V21.5625ZM7.85455 18.1875L5.61039 21V29.0625H0V0.9375H5.61039V13.2188L7.38701 10.2188L12.6234 0.9375H19.5429L11.5948 13.3125L19.6364 29.0625H12.9974L7.85455 18.1875ZM40.6753 0.9375V20.1562C40.6753 23.0625 39.8338 25.2187 38.2442 26.8125C36.6545 28.3125 34.3169 29.0625 31.3247 29.0625C28.239 29.0625 25.9948 28.3125 24.3117 26.7188C22.7221 25.125 21.8805 22.9688 21.8805 19.9688V0.9375H27.6779V20.0625C27.6779 21.6562 27.9584 22.7812 28.426 23.4375C28.987 24.0938 29.9221 24.4687 31.2312 24.4687C32.6338 24.4687 33.5688 24.0938 34.0364 23.4375C34.5039 22.7812 34.7844 21.6562 34.7844 20.1562V0.9375H40.6753ZM60.5922 3.5625C58.9091 1.78125 56.7584 0.9375 53.9532 0.9375H44.4156V29.0625H50.026V19.125H53.8597C56.7584 19.125 59.0026 18.2812 60.6857 16.6875C62.2753 15.0937 63.1169 12.9375 63.1169 10.125C63.1169 7.3125 62.2753 5.25 60.5922 3.5625ZM56.4779 13.4062C55.9169 14.0625 55.0753 14.4375 53.9532 14.4375H50.026V5.625H53.9532C54.9818 5.625 55.7299 6.09375 56.3844 6.9375C56.9455 7.78125 57.3195 8.90625 57.3195 10.3125C57.3195 11.625 57.039 12.6562 56.4779 13.4062ZM72.4675 29.0625H66.8571V0.9375H72.4675V29.0625ZM86.4935 19.2188H77.1429V14.5312H86.4935V19.2188ZM107.439 16.7812C106.784 15.6562 105.849 15 104.54 14.625C105.662 14.1562 106.504 13.4063 107.065 12.375C107.719 11.3438 108 10.125 108 8.71875C108 6.1875 107.252 4.3125 105.756 3C104.26 1.6875 102.109 1.03125 99.2104 1.03125H90.7013V29.1562H99.8649C102.67 29.1562 104.821 28.5 106.223 27.0938C107.719 25.6875 108.468 23.625 108.468 20.9062C108.468 19.2188 108.094 17.9062 107.439 16.7812ZM96.2182 5.625H99.2104C100.332 5.625 101.174 5.90625 101.642 6.46875C102.109 7.03125 102.39 7.96875 102.39 9.1875C102.39 11.5312 101.268 12.6562 99.1169 12.6562H96.2182V5.625ZM102.109 23.4375C101.548 24.0938 100.8 24.375 99.8649 24.375H96.3117V16.875H100.239C102.016 16.9688 102.951 18.1875 102.951 20.7188C102.857 21.8438 102.577 22.7812 102.109 23.4375ZM131.283 0.9375V20.1562C131.283 23.0625 130.442 25.2187 128.852 26.8125C127.262 28.3125 124.925 29.0625 121.932 29.0625C118.847 29.0625 116.603 28.3125 114.919 26.7188C113.33 25.125 112.488 22.9688 112.488 19.9688V0.9375H118.286V20.0625C118.286 21.6562 118.566 22.7812 119.034 23.4375C119.595 24.0938 120.53 24.4687 121.839 24.4687C123.242 24.4687 124.177 24.0938 124.644 23.4375C125.112 22.7812 125.392 21.6562 125.392 20.1562V0.9375H131.283ZM147.927 21.4688C147.927 20.3438 147.647 19.5 146.992 18.9375C146.431 18.375 145.309 17.8125 143.719 17.1562C140.821 16.125 138.764 14.9062 137.548 13.5C136.332 12.0938 135.678 10.4062 135.678 8.53125C135.678 6.1875 136.519 4.40625 138.203 3C139.886 1.59375 142.036 0.9375 144.748 0.9375C146.525 0.9375 148.021 1.3125 149.423 1.96875C150.826 2.625 151.855 3.65625 152.603 4.96875C153.351 6.28125 153.725 7.6875 153.725 9.375H148.021C148.021 8.0625 147.74 7.125 147.179 6.46875C146.618 5.8125 145.777 5.4375 144.748 5.4375C143.719 5.4375 142.971 5.71875 142.41 6.28125C141.849 6.84375 141.569 7.59375 141.569 8.53125C141.569 9.28125 141.849 9.9375 142.504 10.5937C143.158 11.1562 144.281 11.8125 145.87 12.4687C148.675 13.4062 150.639 14.625 151.948 16.0312C153.257 17.4375 153.818 19.2188 153.818 21.375C153.818 23.7188 153.07 25.5938 151.481 27C149.891 28.3125 147.74 28.9688 145.029 28.9688C143.158 28.9688 141.475 28.5938 139.979 27.8438C138.483 27.0938 137.268 26.0625 136.426 24.75C135.584 23.4375 135.117 21.8438 135.117 19.9688H140.914C140.914 21.5625 141.195 22.6875 141.849 23.4375C142.504 24.1875 143.532 24.4687 144.935 24.4687C146.899 24.5625 147.927 23.5312 147.927 21.4688ZM162.14 29.0625H156.53V0.9375H162.14V29.0625ZM186.919 29.0625H181.216L172.893 10.5937V29.0625H167.19V0.9375H172.893L181.216 19.4062V0.9375H186.826V29.0625H186.919ZM205.901 16.875H197.205V24.375H207.491V29.0625H191.595V0.9375H207.491V5.625H197.205V12.2812H205.901V16.875ZM222.732 21.4688C222.732 20.3438 222.452 19.5 221.797 18.9375C221.236 18.375 220.114 17.8125 218.525 17.1562C215.626 16.125 213.569 14.9062 212.353 13.5C211.138 12.0938 210.483 10.4062 210.483 8.53125C210.483 6.1875 211.325 4.40625 213.008 3C214.691 1.59375 216.842 0.9375 219.46 0.9375C221.236 0.9375 222.732 1.3125 224.135 1.96875C225.538 2.625 226.566 3.65625 227.314 4.96875C228.062 6.28125 228.436 7.6875 228.436 9.375H222.732C222.732 8.0625 222.452 7.125 221.891 6.46875C221.33 5.8125 220.488 5.4375 219.46 5.4375C218.431 5.4375 217.683 5.71875 217.122 6.28125C216.561 6.84375 216.281 7.59375 216.281 8.53125C216.281 9.28125 216.561 9.9375 217.216 10.5937C217.87 11.1562 218.992 11.8125 220.582 12.4687C223.387 13.4062 225.351 14.625 226.66 16.0312C227.969 17.4375 228.53 19.2188 228.53 21.375C228.53 23.7188 227.782 25.5938 226.192 27C224.603 28.3125 222.452 28.9688 219.74 28.9688C217.87 28.9688 216.187 28.5938 214.691 27.8438C213.195 27.0938 211.979 26.0625 211.138 24.75C210.296 23.4375 209.829 21.8438 209.829 19.9688H215.626C215.626 21.5625 215.906 22.6875 216.561 23.4375C217.216 24.1875 218.244 24.4687 219.74 24.4687C221.704 24.5625 222.732 23.5312 222.732 21.4688ZM243.304 21.4688C243.304 20.3438 243.023 19.5 242.369 18.9375C241.808 18.375 240.686 17.8125 239.096 17.1562C236.197 16.125 234.14 14.9062 232.925 13.5C231.709 12.0938 231.055 10.4062 231.055 8.53125C231.055 6.1875 231.896 4.40625 233.579 3C235.262 1.59375 237.413 0.9375 240.031 0.9375C241.808 0.9375 243.304 1.3125 244.706 1.96875C246.109 2.625 247.138 3.65625 247.886 4.96875C248.634 6.28125 249.008 7.6875 249.008 9.375H243.304C243.304 8.0625 243.023 7.125 242.462 6.46875C241.901 5.8125 241.06 5.4375 240.031 5.4375C239.003 5.4375 238.255 5.71875 237.693 6.28125C237.132 6.84375 236.852 7.59375 236.852 8.53125C236.852 9.28125 237.132 9.9375 237.787 10.5937C238.442 11.1562 239.564 11.8125 241.153 12.4687C243.958 13.4062 245.922 14.625 247.231 16.0312C248.54 17.4375 249.101 19.2188 249.101 21.375C249.101 23.7188 248.353 25.5938 246.764 27C245.174 28.3125 243.023 28.9688 240.312 28.9688C238.442 28.9688 236.758 28.5938 235.262 27.8438C233.766 27.0938 232.551 26.0625 231.709 24.75C230.868 23.4375 230.4 21.8438 230.4 19.9688H236.197C236.197 21.5625 236.478 22.6875 237.132 23.4375C237.787 24.1875 238.816 24.4687 240.218 24.4687C242.275 24.5625 243.304 23.5312 243.304 21.4688Z" fill="white"/>
</svg>
