<svg width="20" height="20" viewBox="0 0 20 20" fill="none" xmlns="http://www.w3.org/2000/svg">
<path d="M3.5555 7.02124C3.11309 6.04974 3.08429 5.32451 3.4963 4.7584C3.76191 4.31782 4.93314 3.1856 5.50595 3.1992C5.60756 3.20719 5.74436 3.29115 5.88996 3.43428C6.36197 3.89404 7.5316 5.43805 7.64361 5.7267C7.68601 5.9266 7.58601 6.1137 7.4052 6.42714C7.1644 6.84533 6.83479 7.41783 7.11239 8.18144C7.74361 9.72545 8.71003 10.9704 9.98527 11.8827C10.0909 11.9579 10.2125 11.9947 10.3341 11.9947C10.5213 11.9947 10.7053 11.9067 10.8221 11.7436C11.0149 11.4742 10.9533 11.0999 10.6837 10.9064C9.59486 10.1292 8.76764 9.05939 8.23242 7.75046C8.15962 7.55137 8.23322 7.39385 8.44523 7.02524C8.66043 6.65103 8.95564 6.13849 8.81884 5.48203C8.69163 4.87194 7.10599 2.94333 6.72838 2.57472C6.37397 2.22929 5.99637 2.03739 5.58355 2.00301C4.27072 1.91745 2.74188 3.68695 2.49868 4.09394C1.84586 4.98388 1.83386 6.13689 2.46347 7.51778C2.60108 7.82003 2.95549 7.95196 3.2579 7.81523C3.5595 7.6777 3.69231 7.32268 3.5555 7.02124Z" fill="white"/>
<path d="M17.427 13.2672C17.0582 12.8906 15.1309 11.3058 14.5181 11.1787C13.7405 11.0172 13.1221 11.4026 12.6741 11.6848L12.4893 11.7992C12.2052 11.9703 12.114 12.3389 12.2844 12.622C12.4556 12.9066 12.8245 12.997 13.1085 12.8267L13.3133 12.6995C13.7181 12.4445 13.9837 12.2893 14.2389 12.3437C14.5621 12.4652 16.1085 13.635 16.5694 14.1068C16.711 14.2515 16.7942 14.3883 16.8014 14.461C16.823 15.0799 15.6253 16.2697 15.2037 16.5248C14.6629 16.9126 13.9365 16.8846 12.9605 16.4312C10.5476 15.4285 6.7555 12.0359 4.67945 9.02221C4.49224 8.74955 4.11864 8.68239 3.84503 8.86789C3.57222 9.05579 3.50342 9.4292 3.69142 9.70186C5.91388 12.9282 9.86438 16.444 12.4764 17.5283C13.1557 17.8449 13.7829 18 14.3477 18C14.9157 18 15.4205 17.8433 15.8509 17.533C16.0773 17.4035 18.051 15.8635 17.999 14.3899C17.9662 14.0005 17.7742 13.6223 17.427 13.2672Z" fill="white"/>
</svg>
