<svg width="14" height="14" viewBox="0 0 14 14" fill="none" xmlns="http://www.w3.org/2000/svg">
<g opacity="0.5">
<path d="M1.99705 9.67104L0.519285 11.1469C-0.139661 11.7726 -0.17639 12.8104 0.437187 13.4814L0.484718 13.5159C1.11558 14.1459 2.131 14.1632 2.78131 13.5548L4.2526 12.0854C4.92018 11.464 4.95691 10.4197 4.33469 9.75087C3.71031 9.08633 2.66464 9.04749 1.99705 9.67104Z" fill="white"/>
<path d="M11.1962 13.2741C11.8465 13.8933 12.8728 13.8803 13.508 13.2482C13.5188 13.2352 13.5317 13.2266 13.5404 13.2136C14.1755 12.5469 14.1496 11.4919 13.4799 10.8597L9.5089 6.89182L13.1601 3.24761C13.6894 2.71683 13.7975 1.90125 13.4237 1.25181C13.3481 1.10509 13.2487 0.973479 13.132 0.856967C12.4796 0.22047 11.4404 0.213997 10.7814 0.841864L7.11509 4.5055L3.0858 0.479384C3.07931 0.472912 3.07499 0.468596 3.06851 0.464281C2.42253 -0.165743 1.38982 -0.152798 0.758958 0.49233C0.143221 1.17414 0.156183 2.21411 0.787044 2.88297L11.1141 13.1942L11.1962 13.2741Z" fill="white"/>
</g>
</svg>
